<svg xmlns="http://www.w3.org/2000/svg" width="395" height="25" viewBox="0 0 395 25" fill="none"><path d="M30.8854 4.67282C29.122 5.12932 27.7601 6.50067 27.3057 8.27734C27.1774 8.7791 27.174 8.97835 27.174 16.0049C27.174 22.3418 27.1859 23.2292 27.272 23.3154C27.4467 23.4901 27.6334 23.5098 27.8167 23.373L27.9879 23.2452L28.0205 15.9595L28.053 8.67388L28.2041 8.25527C28.4108 7.68286 28.5435 7.43576 28.8965 6.96616C29.458 6.21925 30.3367 5.68298 31.3281 5.48211C31.7805 5.39043 32.2175 5.3789 34.3501 5.40247C36.6354 5.42767 36.8764 5.44095 37.2409 5.5618C38.6443 6.0271 39.6713 7.10557 40.0496 8.5111C40.1463 8.87046 40.1634 9.23392 40.1634 10.9203C40.1634 13.1529 40.1347 13.3552 39.6917 14.2398C39.3521 14.918 38.6423 15.6311 37.9827 15.9568C37.0432 16.4207 37.1345 16.4109 33.5079 16.438L30.2377 16.4626L30.1058 16.6303C29.9396 16.8415 29.9404 16.9158 30.1113 17.133L30.2488 17.3077L33.6437 17.2869C36.996 17.2663 37.0443 17.2641 37.4944 17.1145C38.8654 16.6587 39.9169 15.7629 40.5169 14.5395C40.9947 13.5651 41.0105 13.4498 41.0105 10.9203C41.0105 8.94117 40.9964 8.62394 40.8915 8.25442C40.3731 6.42663 39.0552 5.1331 37.2398 4.67047C36.7632 4.54904 36.525 4.53946 34.0493 4.54278C31.6188 4.54604 31.329 4.55796 30.8854 4.67282Z" fill="#ADADAD" fill-opacity="0.5"></path><path d="M41.4113 4.6583C41.2532 4.83286 41.2726 5.16129 41.4483 5.28429C41.564 5.36542 41.7947 5.38574 42.604 5.38606C43.1601 5.38626 43.728 5.41777 43.866 5.45606C44.0041 5.49441 44.2458 5.64443 44.4031 5.7895C44.4811 5.86137 44.5464 5.91642 44.6012 5.9805C44.8977 6.32721 44.8847 6.93846 44.8847 11.9088C44.8847 17.0192 44.8869 17.1082 45.015 17.2362C45.182 17.4033 45.4346 17.4026 45.6024 17.2348C45.7328 17.1045 45.7339 17.0481 45.7164 11.6514L45.6986 6.19959L45.5167 5.82909C45.2825 5.35214 44.7403 4.85246 44.2635 4.67405C43.9472 4.55568 43.7573 4.5392 42.7111 4.5392C41.6389 4.5392 41.5082 4.55118 41.4113 4.6583Z" fill="#ADADAD" fill-opacity="0.5"></path><path d="M44.5145 1.49934C43.7945 2.21942 43.7949 2.23694 44.5557 2.99765C45.106 3.54799 45.1501 3.57787 45.3533 3.53861C45.5068 3.50892 45.713 3.35024 46.073 2.98496C46.7647 2.2831 46.7632 2.21402 46.0391 1.49374C45.3076 0.766034 45.2477 0.766229 44.5145 1.49934Z" fill="#ADADAD" fill-opacity="0.5"></path><path d="M48.3069 4.68395C48.1686 4.88131 48.1796 5.09931 48.3357 5.25545C48.4557 5.37545 48.554 5.3858 49.5891 5.38724C49.6551 5.38733 49.7186 5.38732 49.7801 5.3873C50.3933 5.38717 50.7919 5.38709 51.159 5.49435C51.8405 5.69341 52.4139 6.26219 54.0516 7.88657C54.1399 7.97422 54.2314 8.06494 54.3261 8.15884C55.7477 9.56782 56.7405 10.5014 56.9049 10.5838C57.3097 10.7869 57.7558 10.8244 58.2077 10.6932C58.5826 10.5843 58.6425 10.5308 60.9351 8.25436L61.0265 8.16356C62.8879 6.31526 63.5109 5.6966 64.2493 5.48962C64.6208 5.38549 65.0216 5.38556 65.6239 5.38567L65.6827 5.38567C66.6707 5.38567 66.8278 5.3285 66.8278 4.96882C66.8278 4.57723 66.7166 4.5392 65.5724 4.5392C64.3626 4.5392 64.0432 4.59644 63.3117 4.94447C62.7701 5.20218 62.7086 5.25714 60.438 7.51578C58.2857 9.65663 58.0986 9.82632 57.8537 9.85913C57.7085 9.8786 57.5073 9.87411 57.4066 9.84917C57.2845 9.81889 56.4551 9.04034 54.9121 7.50738C52.4624 5.07365 52.2959 4.93796 51.438 4.67568C51.0489 4.55672 50.8259 4.5392 49.6999 4.5392C48.4389 4.5392 48.4058 4.54265 48.3069 4.68395Z" fill="#ADADAD" fill-opacity="0.5"></path><path d="M57.303 11.054C57.1675 11.0873 56.9623 11.162 56.8472 11.22C56.7319 11.2781 55.5974 12.3593 54.3261 13.6227C52.7662 15.1729 51.9193 15.9678 51.7216 16.0671C51.1924 16.3329 50.8392 16.3882 49.663 16.389C48.6348 16.3897 48.5354 16.4002 48.3771 16.5248C48.1434 16.7086 48.1466 16.9848 48.3846 17.1732C48.5578 17.3103 48.6043 17.314 49.8008 17.2838L49.8709 17.282C50.6116 17.2635 51.0852 17.2516 51.5191 17.1143C52.2883 16.8707 52.9325 16.2326 54.7189 14.4631L54.8145 14.3685C56.0679 13.127 57.1659 12.0631 57.2544 12.0042C57.4528 11.8721 57.8545 11.8655 58.0896 11.9903C58.1863 12.0417 59.2177 13.0403 60.3816 14.2093C61.5455 15.3784 62.667 16.4514 62.8738 16.5938C63.0806 16.7362 63.4469 16.93 63.6877 17.0246C64.0941 17.1842 64.2139 17.1984 65.3509 17.2226C66.4487 17.2459 66.5891 17.2368 66.702 17.1347C66.8651 16.987 66.8629 16.6853 66.6976 16.52C66.5792 16.4016 66.48 16.3897 65.6069 16.389L65.5229 16.3889C64.9602 16.3887 64.5845 16.3886 64.2358 16.2914C63.5353 16.0961 62.944 15.5092 61.1646 13.7431L61.0324 13.6119C58.6042 11.2023 58.4791 11.101 57.8422 11.0275C57.6811 11.0088 57.4384 11.0208 57.303 11.054Z" fill="#ADADAD" fill-opacity="0.5"></path><path d="M2.20972 10.1389C1.39776 10.9569 0.676306 11.7416 0.576423 11.9156C0.0251761 12.8754 0.00420967 14.0994 0.521142 15.1441C0.660223 15.4251 1.04511 15.8578 2.16909 16.997L3.63563 18.4831L4.74255 18.462C4.80643 18.4608 4.86744 18.4598 4.92589 18.4588C5.37121 18.4515 5.66711 18.4466 5.94111 18.3667C6.48366 18.2085 6.9404 17.756 8.30152 16.4075C8.39169 16.3182 8.48582 16.2249 8.58422 16.1276C10.4662 14.2652 10.5502 14.1916 10.8817 14.1131C11.2646 14.0225 11.7243 14.066 12.0344 14.2224C12.1423 14.2767 13.0803 15.1659 14.1188 16.1983C14.1797 16.2588 14.2388 16.3176 14.2964 16.3748L14.2966 16.375C15.6985 17.7691 16.1499 18.218 16.686 18.3717C16.9406 18.4447 17.2143 18.4511 17.618 18.4605L17.62 18.4605C17.6446 18.4611 17.6696 18.4617 17.6952 18.4623L17.7257 18.463L18.663 18.486L20.0282 17.1286C21.4827 15.6825 21.8254 15.2464 22.031 14.5807C22.1923 14.0585 22.204 13.1766 22.0564 12.6739C21.8301 11.9035 21.6097 11.6109 20.1312 10.1184L18.7206 8.69452L17.722 8.7177C16.8525 8.73789 16.6817 8.75996 16.4011 8.88849C16.1536 9.00192 15.6327 9.47829 14.1547 10.9427C12.9566 12.1298 12.1323 12.8961 11.9701 12.9734C11.6231 13.1389 10.9487 13.1416 10.6353 12.9787C10.5099 12.9135 9.55766 12.0165 8.5191 10.9854C7.08974 9.56619 6.54377 9.06586 6.27271 8.92671C5.93119 8.75137 5.86243 8.74121 4.78937 8.70833L3.66408 8.67388L2.20972 10.1389Z" fill="#D8D8D8"></path><path d="M10.7004 2.58685C10.2902 2.64135 9.78367 2.82452 9.38218 3.06355C9.22981 3.15431 8.09437 4.24131 6.85905 5.47911L4.61304 7.72974L4.97077 7.73026C5.55242 7.73104 6.14463 7.85287 6.63083 8.07172C7.05113 8.26093 7.23612 8.42508 9.00745 10.1805C10.0639 11.2275 11.0057 12.1133 11.1004 12.149C11.195 12.1848 11.3415 12.1974 11.4259 12.1772C11.5103 12.1568 12.4145 11.3123 13.4351 10.3003C14.4558 9.28829 15.4374 8.36811 15.6164 8.25546C16.0692 7.97059 16.6805 7.79486 17.2185 7.79486C17.5373 7.79486 17.6675 7.77096 17.6675 7.71242C17.6675 7.6671 16.664 6.63278 15.4374 5.414C13.487 3.47597 13.1501 3.16851 12.7515 2.96308C12.0623 2.60782 11.4238 2.49068 10.7004 2.58685Z" fill="#D8D8D8"></path><path fill-rule="evenodd" clip-rule="evenodd" d="M41.4989 21.5174L41.499 21.7616L41.1484 21.7397C40.7173 21.7128 40.4425 21.8406 40.3258 22.1221C40.2136 22.3929 40.3055 22.751 40.5299 22.9175C40.6791 23.0282 40.7625 23.0382 41.1973 22.9974L41.6942 22.9509V22.1121C41.6942 21.4099 41.6783 21.2733 41.5965 21.2733C41.527 21.2733 41.4988 21.3438 41.4989 21.5174ZM42.9313 22.1145V22.9558L43.3508 23.0008C43.911 23.0607 44.2385 22.9151 44.3243 22.5682C44.3972 22.2731 44.3391 22.033 44.1514 21.8545C44.0231 21.7324 43.9534 21.7201 43.5662 21.7512L43.1267 21.7866V21.5299C43.1267 21.3452 43.0993 21.2733 43.029 21.2733C42.9472 21.2733 42.9313 21.4101 42.9313 22.1145ZM57.2682 21.3377C56.6273 21.4894 56.4066 22.3742 56.8952 22.8333C57.0811 23.0079 57.5122 23.0682 57.9724 22.9838C58.2262 22.9372 58.2655 22.9085 58.2655 22.769C58.2655 22.6266 58.243 22.6117 58.0701 22.6396C57.9627 22.657 57.733 22.6714 57.5598 22.6716C57.1781 22.672 57.0609 22.548 57.0609 22.1436C57.0609 21.7647 57.2144 21.6639 57.7916 21.6639C58.2127 21.6639 58.2329 21.6568 58.2329 21.5093C58.2329 21.3882 58.1888 21.3458 58.0294 21.3139C57.7787 21.2638 57.5502 21.2709 57.2682 21.3377ZM66.2418 22.9662H66.4371H66.6325V22.1197V21.2733H66.4371H66.2418V22.1197V22.9662ZM46.9683 22.1523V22.9662H47.6448C48.2007 22.9662 48.3472 22.9452 48.4669 22.8483C48.6552 22.6958 48.6595 22.3935 48.4754 22.2445C48.3563 22.148 48.351 22.123 48.4347 22.0535C48.5358 21.9696 48.5629 21.682 48.4812 21.5597C48.3743 21.3995 48.1194 21.3384 47.5587 21.3384H46.9683V22.1523ZM62.2699 21.5663C62.2699 21.6856 62.2352 21.729 62.1397 21.729C62.0442 21.729 62.0095 21.7725 62.0095 21.8918C62.0095 22.0112 62.0442 22.0546 62.1397 22.0546C62.2541 22.0546 62.2699 22.098 62.2699 22.4127C62.2699 22.6841 62.3015 22.8024 62.4001 22.9011C62.6119 23.1129 63.1164 23.0622 63.1164 22.829C63.1164 22.7323 63.0688 22.7057 62.8954 22.7057C62.6506 22.7057 62.5955 22.6277 62.5955 22.2811C62.5955 22.0754 62.61 22.0612 62.8396 22.0422C63.0337 22.0262 63.0838 21.9953 63.0838 21.8918C63.0838 21.7884 63.0337 21.7574 62.8396 21.7414C62.6297 21.724 62.5955 21.6989 62.5955 21.5624C62.5955 21.4363 62.5619 21.4035 62.4327 21.4035C62.3025 21.4035 62.2699 21.436 62.2699 21.5663ZM48.1078 21.8267C48.1078 21.9396 48.0579 21.9595 47.7334 21.9765C47.3687 21.9955 47.359 21.9916 47.359 21.8267C47.359 21.6618 47.3687 21.6579 47.7334 21.677C48.0579 21.6939 48.1078 21.7139 48.1078 21.8267ZM30.2622 21.7888C30.2469 21.8037 30.2343 22.1772 30.2343 22.6189C30.2343 23.2893 30.2504 23.422 30.332 23.422C30.3998 23.422 30.4296 23.3537 30.4296 23.1988V22.9756L30.7715 23.0075C31.2393 23.051 31.547 22.8931 31.6273 22.5682C31.7003 22.2727 31.6418 22.0319 31.4546 21.8575C31.3282 21.7398 31.242 21.7246 30.7996 21.7418C30.5194 21.7527 30.2775 21.7738 30.2622 21.7888ZM32.1176 21.9194C31.7378 22.2991 31.9351 22.9252 32.4608 23.0089C32.7979 23.0625 33.1419 22.9849 33.2949 22.8207C33.4252 22.6809 33.473 22.2558 33.3844 22.025C33.3194 21.8557 33.0015 21.729 32.6417 21.729C32.3596 21.729 32.2785 21.7585 32.1176 21.9194ZM33.6704 21.7656C33.6053 21.8308 34.0958 22.9662 34.1892 22.9662C34.2388 22.9662 34.3785 22.7538 34.4996 22.4941L34.7197 22.0221L34.935 22.4952C35.0764 22.8059 35.1832 22.9622 35.2461 22.9504C35.3436 22.9323 35.7559 22.051 35.7643 21.843C35.7735 21.6141 35.6501 21.7383 35.5055 22.1034C35.4942 22.1319 35.4835 22.1592 35.4732 22.1853C35.3543 22.4864 35.2984 22.6281 35.242 22.6283C35.1919 22.6285 35.1414 22.5171 35.046 22.307L35.0442 22.303L35.0425 22.2994C35.0343 22.2812 35.0257 22.2622 35.0167 22.2426C34.8967 21.9792 34.7672 21.7533 34.729 21.7406C34.6909 21.7278 34.568 21.9252 34.4558 22.179C34.3436 22.4329 34.2305 22.6406 34.2044 22.6406C34.1783 22.6406 34.0915 22.4657 34.0116 22.252C33.8705 21.8748 33.743 21.693 33.6704 21.7656ZM36.3032 21.7973C36.1053 21.8767 35.9441 22.2684 36.0004 22.5334C36.0574 22.802 36.1933 22.9489 36.4335 23.0017C36.7059 23.0615 37.3316 22.9753 37.3316 22.878C37.3316 22.8214 37.2046 22.8063 36.8828 22.8245C36.4934 22.8465 36.4158 22.8317 36.2968 22.7127C36.2213 22.6372 36.1596 22.5462 36.1596 22.5104C36.1596 22.4716 36.4092 22.4453 36.7782 22.4453C37.3484 22.4453 37.3967 22.4353 37.3967 22.3181C37.3967 22.1078 37.2619 21.8781 37.0935 21.8013C36.9049 21.7154 36.5121 21.7134 36.3032 21.7973ZM37.7879 22.3639C37.7876 22.7224 37.8138 22.9662 37.8525 22.9662C37.89 22.9662 37.9176 22.7623 37.9176 22.4848C37.9176 21.9622 37.9443 21.9244 38.3136 21.9244C38.4376 21.9244 38.5037 21.891 38.5037 21.8285C38.5037 21.754 38.4241 21.7359 38.146 21.7471L37.7885 21.7616L37.7879 22.3639ZM38.832 21.9116C38.6712 22.0724 38.6343 22.1628 38.636 22.3914C38.6382 22.6944 38.7142 22.8358 38.9389 22.9556C39.1858 23.087 39.9361 23.0261 39.9361 22.8745C39.9361 22.8224 39.7994 22.8069 39.4917 22.8242C39.1394 22.8442 39.0247 22.8268 38.9382 22.7404C38.7005 22.5026 38.7932 22.4453 39.4152 22.4453H40.0013V22.2572C40.0013 21.9381 39.813 21.7783 39.3963 21.7438C39.0563 21.7156 39.0161 21.7275 38.832 21.9116ZM44.5377 21.7721C44.514 21.7958 44.6264 22.0629 44.7873 22.3655C44.9483 22.6682 45.0801 22.9519 45.0801 22.996C45.0801 23.129 44.8532 23.2918 44.668 23.2918C44.4647 23.2918 44.4362 23.3949 44.6232 23.4542C44.9032 23.5431 45.0988 23.3509 45.4844 22.6081C45.8601 21.8844 45.9151 21.729 45.7958 21.729C45.7597 21.729 45.6214 21.9488 45.4885 22.2174C45.3556 22.486 45.2313 22.7055 45.2123 22.7052C45.1933 22.7049 45.0608 22.4851 44.9178 22.2169C44.6605 21.734 44.6215 21.6883 44.5377 21.7721ZM49.1171 21.8593C49.1171 21.9689 49.1608 21.9896 49.3938 21.9904C49.7648 21.9916 49.9635 22.0507 49.9635 22.1599C49.9635 22.2271 49.8588 22.2499 49.5504 22.2499C49.0155 22.2499 48.8211 22.433 48.9631 22.8031C49.0309 22.9795 49.2947 23.0359 49.8401 22.9903L50.3542 22.9474L50.3532 22.4847C50.3527 22.2303 50.3307 21.9898 50.3044 21.9504C50.2046 21.801 49.9577 21.729 49.5446 21.729C49.1605 21.729 49.1171 21.7423 49.1171 21.8593ZM50.7739 21.7868C50.758 21.8028 50.7449 22.0747 50.7449 22.391V22.9662H50.9402H51.1356V22.5499C51.1356 22.0941 51.1687 22.0546 51.5511 22.0546C51.8467 22.0546 51.9169 22.1571 51.9169 22.5885C51.9169 22.948 51.9248 22.9662 52.0797 22.9662C52.2389 22.9662 52.2425 22.9553 52.2425 22.4778C52.2425 21.7863 52.173 21.7262 51.3933 21.7441C51.0686 21.7516 50.79 21.7708 50.7739 21.7868ZM52.8611 21.8077C52.6427 21.9329 52.5723 22.0736 52.5701 22.3892C52.5675 22.7781 52.7127 22.9631 53.0571 23.0091C53.3943 23.0541 53.7665 22.9564 53.7936 22.8156C53.8116 22.7222 53.7551 22.7057 53.4177 22.7057C53.0541 22.7057 53.0154 22.692 52.9587 22.543C52.8227 22.185 53.1053 21.9466 53.561 22.0351C53.7196 22.0658 53.7401 22.0503 53.7401 21.8994C53.7401 21.7352 53.7266 21.7291 53.3657 21.731C53.1597 21.7321 52.9327 21.7666 52.8611 21.8077ZM54.2842 21.7901C54.0926 21.8723 53.9354 22.1133 53.9354 22.3253C53.9354 22.8322 54.2807 23.0741 54.9117 23.0095C55.369 22.9627 55.5633 22.7676 55.5633 22.3554C55.5633 21.9437 55.3566 21.7731 54.8287 21.7489C54.606 21.7387 54.361 21.7572 54.2842 21.7901ZM58.6837 21.9194C58.5311 22.0719 58.4934 22.1665 58.4934 22.3955C58.4934 22.9011 58.8088 23.0831 59.5388 22.9984C59.8566 22.9614 59.9258 22.9317 59.9258 22.8323C59.9258 22.7263 59.8629 22.7089 59.4219 22.6922C59.0027 22.6764 58.9143 22.654 58.8963 22.5592C58.8769 22.4579 58.9362 22.4453 59.4327 22.4453C59.9892 22.4453 59.9909 22.4448 59.9909 22.2775C59.9909 22.1788 59.9125 22.0312 59.8006 21.9194C59.6351 21.7539 59.5622 21.729 59.2421 21.729C58.9221 21.729 58.8492 21.7539 58.6837 21.9194ZM60.3165 22.3635V22.9662H60.5089C60.7011 22.9662 60.7013 22.9657 60.7205 22.5267L60.7397 22.0872H61.0653H61.3909L61.4102 22.5267C61.4294 22.9657 61.4296 22.9662 61.6218 22.9662H61.8141V22.5075C61.8141 22.109 61.7934 22.028 61.6565 21.8911C61.5106 21.7451 61.4557 21.7346 60.9077 21.7471L60.3165 21.7608V22.3635ZM63.407 21.7857C63.3904 21.8023 63.3768 22.0747 63.3768 22.391V22.9662H63.5692C63.7614 22.9662 63.7616 22.9657 63.7808 22.5267L63.8001 22.0872L64.0605 22.0546C64.2667 22.0288 64.321 21.9949 64.321 21.8918C64.321 21.7747 64.2766 21.7613 63.879 21.7586C63.636 21.7569 63.4236 21.7692 63.407 21.7857ZM64.614 21.8593C64.614 21.9689 64.6577 21.9896 64.8907 21.9904C65.2617 21.9916 65.4604 22.0507 65.4604 22.1599C65.4604 22.2271 65.3557 22.2499 65.0473 22.2499C64.5124 22.2499 64.318 22.433 64.46 22.8031C64.5278 22.9795 64.7916 23.0359 65.337 22.9903L65.8511 22.9474L65.8501 22.4847C65.8496 22.2303 65.8276 21.9898 65.8013 21.9504C65.7015 21.801 65.4546 21.729 65.0415 21.729C64.6574 21.729 64.614 21.7423 64.614 21.8593ZM37.147 22.0697C37.2487 22.23 37.1962 22.2499 36.6725 22.2499H36.1437L36.2408 22.1034C36.4002 21.863 37.0016 21.8406 37.147 22.0697ZM39.7245 22.0062C39.7693 22.0416 39.8059 22.1109 39.8059 22.1602C39.8059 22.2285 39.689 22.2499 39.3176 22.2499C39.049 22.2499 38.8297 22.228 38.8302 22.2011C38.8357 21.9316 39.4585 21.7959 39.7245 22.0062ZM31.3524 22.0321C31.515 22.1794 31.5074 22.5396 31.3381 22.7089C31.229 22.818 31.1372 22.8388 30.8335 22.8228L30.4622 22.8034L30.4423 22.4188C30.4288 22.1551 30.4492 22.0172 30.5074 21.9802C30.6618 21.8824 31.2251 21.917 31.3524 22.0321ZM33.0789 21.9756C33.2219 22.0665 33.2966 22.3666 33.2238 22.5579C33.1345 22.7927 33.0579 22.8337 32.7068 22.835C32.3066 22.8363 32.1226 22.6986 32.1226 22.3979C32.1226 22.0523 32.2709 21.9242 32.6698 21.9254C32.8523 21.9259 33.0364 21.9485 33.0789 21.9756ZM41.4989 22.34C41.4989 22.8071 41.4688 22.8334 40.9328 22.8351C40.6215 22.8361 40.457 22.6738 40.457 22.3657C40.457 22.0614 40.6593 21.9244 41.1082 21.9244H41.4989V22.34ZM44.0494 22.0321C44.212 22.1794 44.2044 22.5396 44.0351 22.7089C43.926 22.818 43.8342 22.8388 43.5305 22.8228L43.1592 22.8034L43.1394 22.4188C43.1258 22.1551 43.1463 22.0172 43.2045 21.9802C43.3589 21.8824 43.9222 21.917 44.0494 22.0321ZM55.0278 22.0909C55.1873 22.2025 55.224 22.4981 55.0944 22.6276C55.0515 22.6706 54.8962 22.7057 54.7494 22.7057C54.4372 22.7057 54.3261 22.6178 54.3261 22.3709C54.3261 22.1734 54.5302 21.9895 54.7494 21.9895C54.8229 21.9895 54.9483 22.0351 55.0278 22.0909ZM59.4973 22.029C59.7097 22.1105 59.5882 22.1848 59.2421 22.1848C58.9103 22.1848 58.774 22.1099 58.9654 22.0326C59.0832 21.9851 59.3776 21.9831 59.4973 22.029ZM48.1949 22.47C48.2276 22.6415 48.0969 22.7036 47.7009 22.7048C47.3631 22.7057 47.359 22.7034 47.359 22.5073V22.3089L47.7653 22.3282C48.1025 22.3443 48.1756 22.3685 48.1949 22.47ZM49.8848 22.487C50.0799 22.5393 50.0369 22.6523 49.7965 22.7193C49.5565 22.7862 49.3124 22.7319 49.3124 22.6116C49.3124 22.4769 49.6074 22.4127 49.8848 22.487ZM65.3817 22.487C65.5768 22.5393 65.5338 22.6523 65.2934 22.7193C65.0539 22.7861 64.8093 22.732 64.8093 22.6122C64.8093 22.4638 65.0766 22.4053 65.3817 22.487Z" fill="#ADADAD" fill-opacity="0.5"></path><path d="M11.0911 15.0031C11.0374 15.0227 10.129 15.893 9.07257 16.9372C7.74856 18.2458 7.04905 18.89 6.82128 19.0105C6.34843 19.2607 5.80532 19.385 5.18467 19.385C4.88775 19.385 4.64488 19.4079 4.64488 19.4359C4.64488 19.4639 5.67777 20.5145 6.94011 21.7706C8.82312 23.6443 9.30118 24.086 9.602 24.2304C10.6665 24.7413 11.8729 24.7188 12.8305 24.1701C13.1214 24.0034 17.6675 19.5532 17.6675 19.435C17.6675 19.4075 17.4979 19.385 17.2905 19.385C17.0832 19.385 16.7457 19.3413 16.5406 19.2878C15.7559 19.0834 15.5897 18.9527 13.5979 16.9729C12.5594 15.9406 11.6271 15.0647 11.5264 15.0266C11.3292 14.952 11.244 14.9475 11.0911 15.0031Z" fill="#D8D8D8"></path><path fill-rule="evenodd" clip-rule="evenodd" d="M109.429 12.2825C109.366 12.3562 109.31 12.4382 109.262 12.5287C109.145 12.7456 109.086 13.0005 109.086 13.2932C109.086 13.5894 109.145 13.8477 109.262 14.0681C109.29 14.1207 109.32 14.1705 109.353 14.2174C108.646 20.0791 103.655 24.6216 97.6027 24.6216C91.0656 24.6216 85.7662 19.3223 85.7662 12.7852C85.7662 6.24809 91.0656 0.94873 97.6027 0.94873C103.971 0.94873 109.165 5.97858 109.429 12.2825ZM102.823 13.9389V12.2704H103.562V11.8829H102.823V11.1701H102.353V11.8829H101.986V12.2704H102.353V13.9389C102.353 14.2144 102.418 14.4125 102.549 14.533C102.68 14.6535 102.876 14.7138 103.138 14.7138H103.562V14.316H103.216C103.071 14.316 102.969 14.2885 102.911 14.2334C102.852 14.1748 102.823 14.0767 102.823 13.9389ZM94.7307 11.9708C94.5585 11.8778 94.3622 11.8313 94.1418 11.8313C93.918 11.8313 93.7148 11.8864 93.5323 11.9966C93.3497 12.1068 93.2189 12.2618 93.1396 12.4615C93.0501 12.2549 92.9141 12.0982 92.7315 11.9914C92.549 11.8847 92.3389 11.8313 92.1013 11.8313C91.9119 11.8313 91.738 11.8709 91.5796 11.9501C91.4246 12.0293 91.3006 12.143 91.2076 12.291V11.8829H90.7375V14.7138H91.2076V13.1537C91.2076 12.8576 91.28 12.632 91.4246 12.477C91.5692 12.3186 91.7638 12.2394 92.0083 12.2394C92.246 12.2394 92.4337 12.3151 92.5714 12.4667C92.7126 12.6148 92.7832 12.83 92.7832 13.1124V14.7138H93.2481V13.1537C93.2481 12.8576 93.3205 12.632 93.4651 12.477C93.6097 12.3186 93.8043 12.2394 94.0488 12.2394C94.2865 12.2394 94.4742 12.3151 94.6119 12.4667C94.7531 12.6148 94.8237 12.83 94.8237 13.1124V14.7138H95.2886V13.0452C95.2886 12.7835 95.2387 12.5614 95.1388 12.3789C95.0389 12.1963 94.9029 12.0603 94.7307 11.9708ZM96.0597 12.5287C95.9427 12.7456 95.8841 12.9988 95.8841 13.288C95.8841 13.5739 95.9427 13.8287 96.0597 14.0526C96.1768 14.2764 96.337 14.4503 96.5402 14.5743C96.7434 14.6983 96.9707 14.7603 97.2221 14.7603C97.4666 14.7603 97.6801 14.7069 97.8626 14.6002C98.0486 14.49 98.1881 14.3522 98.2811 14.1869V14.7138H98.7563V11.8829H98.2811V12.3995C98.1915 12.2377 98.0555 12.1033 97.873 11.9966C97.6904 11.8898 97.4752 11.8364 97.2272 11.8364C96.9758 11.8364 96.7468 11.8967 96.5402 12.0172C96.337 12.1378 96.1768 12.3083 96.0597 12.5287ZM98.1519 12.7353C98.238 12.8937 98.2811 13.0797 98.2811 13.2932C98.2811 13.5067 98.238 13.6944 98.1519 13.8563C98.0658 14.0147 97.9487 14.137 97.8006 14.2231C97.656 14.3057 97.4958 14.347 97.3202 14.347C97.1446 14.347 96.9844 14.3057 96.8398 14.2231C96.6951 14.137 96.5798 14.0147 96.4937 13.8563C96.4076 13.6944 96.3645 13.505 96.3645 13.288C96.3645 13.0745 96.4076 12.8886 96.4937 12.7301C96.5798 12.5717 96.6951 12.4512 96.8398 12.3685C96.9844 12.2859 97.1446 12.2445 97.3202 12.2445C97.4958 12.2445 97.656 12.2876 97.8006 12.3737C97.9487 12.4563 98.0658 12.5769 98.1519 12.7353ZM100.553 14.7603C100.336 14.7603 100.141 14.7241 99.9691 14.6518C99.797 14.5761 99.6609 14.4727 99.561 14.3419C99.4612 14.2076 99.4061 14.0543 99.3957 13.8821H99.8813C99.8951 14.0233 99.9605 14.1387 100.078 14.2282C100.198 14.3178 100.355 14.3625 100.548 14.3625C100.727 14.3625 100.868 14.3229 100.971 14.2437C101.075 14.1645 101.126 14.0646 101.126 13.9441C101.126 13.8201 101.071 13.7289 100.961 13.6703C100.851 13.6083 100.68 13.5481 100.45 13.4895C100.239 13.4344 100.067 13.3793 99.933 13.3242C99.8021 13.2657 99.6885 13.1813 99.592 13.0711C99.4991 12.9574 99.4526 12.8093 99.4526 12.6268C99.4526 12.4822 99.4956 12.3496 99.5817 12.229C99.6678 12.1085 99.7901 12.0138 99.9485 11.9449C100.107 11.8726 100.288 11.8364 100.491 11.8364C100.804 11.8364 101.057 11.9157 101.25 12.0741C101.443 12.2325 101.546 12.4495 101.56 12.725H101.09C101.08 12.5769 101.02 12.4581 100.909 12.3685C100.803 12.279 100.658 12.2342 100.475 12.2342C100.307 12.2342 100.172 12.2704 100.072 12.3427C99.9726 12.415 99.9227 12.5097 99.9227 12.6268C99.9227 12.7198 99.9519 12.7973 100.01 12.8593C100.072 12.9178 100.148 12.966 100.238 13.0039C100.331 13.0384 100.458 13.078 100.62 13.1227C100.823 13.1778 100.989 13.2329 101.116 13.288C101.243 13.3397 101.352 13.4189 101.441 13.5257C101.534 13.6324 101.583 13.7719 101.586 13.9441C101.586 14.0991 101.543 14.2386 101.457 14.3625C101.371 14.4865 101.249 14.5847 101.09 14.657C100.935 14.7259 100.756 14.7603 100.553 14.7603ZM106.714 13.1899C106.714 13.2794 106.709 13.3741 106.699 13.474H104.436C104.453 13.753 104.548 13.9717 104.72 14.1301C104.896 14.285 105.108 14.3625 105.356 14.3625C105.559 14.3625 105.728 14.316 105.862 14.2231C106 14.1266 106.096 13.9992 106.151 13.8408H106.657C106.582 14.1129 106.43 14.335 106.203 14.5072C105.976 14.6759 105.693 14.7603 105.356 14.7603C105.087 14.7603 104.846 14.7 104.632 14.5795C104.422 14.459 104.257 14.2885 104.137 14.0681C104.016 13.8442 103.956 13.5859 103.956 13.2932C103.956 13.0005 104.014 12.7439 104.131 12.5235C104.248 12.3031 104.412 12.1343 104.622 12.0172C104.836 11.8967 105.08 11.8364 105.356 11.8364C105.624 11.8364 105.862 11.895 106.069 12.0121C106.275 12.1292 106.434 12.291 106.544 12.4977C106.657 12.7009 106.714 12.9316 106.714 13.1899ZM106.229 13.0917C106.229 12.9127 106.189 12.7594 106.11 12.632C106.031 12.5011 105.922 12.403 105.784 12.3375C105.65 12.2687 105.5 12.2342 105.335 12.2342C105.097 12.2342 104.894 12.31 104.725 12.4615C104.56 12.613 104.465 12.8231 104.441 13.0917H106.229ZM108.156 11.9656C108.005 12.0551 107.888 12.1808 107.805 12.3427V11.8829H107.335V14.7138H107.805V13.1744C107.805 12.6027 108.068 12.3169 108.595 12.3169H108.719V11.8313C108.499 11.8313 108.311 11.876 108.156 11.9656Z" fill="#959595" fill-opacity="0.7"></path><path fill-rule="evenodd" clip-rule="evenodd" d="M102.112 12.2705C102.105 12.4411 102.101 12.6126 102.101 12.7849C102.101 19.322 107.401 24.6214 113.938 24.6214C120.475 24.6214 125.774 19.322 125.774 12.7849C125.774 6.24784 120.475 0.948486 113.938 0.948486C107.704 0.948487 102.596 5.7673 102.135 11.883H102.353V11.1702H102.823V11.883H103.562V12.2705H102.823V13.939C102.823 14.0768 102.852 14.1749 102.911 14.2335C102.969 14.2886 103.071 14.3161 103.216 14.3161H103.562V14.7139H103.138C102.876 14.7139 102.68 14.6536 102.549 14.5331C102.418 14.4126 102.353 14.2145 102.353 13.939V12.2705H102.112ZM117.818 12.5288C117.701 12.7457 117.642 12.9989 117.642 13.2881C117.642 13.574 117.701 13.8288 117.818 14.0527C117.935 14.2765 118.095 14.4505 118.298 14.5744C118.505 14.6984 118.734 14.7604 118.985 14.7604C119.23 14.7604 119.443 14.707 119.626 14.6003C119.808 14.4901 119.946 14.3506 120.039 14.1818V14.7139H120.514V10.8912H120.039V12.3893C119.939 12.224 119.795 12.0914 119.605 11.9915C119.416 11.8882 119.211 11.8365 118.99 11.8365C118.736 11.8365 118.505 11.8968 118.298 12.0174C118.095 12.1379 117.935 12.3084 117.818 12.5288ZM119.91 12.7354C119.996 12.8938 120.039 13.0798 120.039 13.2933C120.039 13.5068 119.996 13.6945 119.91 13.8564C119.824 14.0148 119.707 14.1371 119.559 14.2232C119.414 14.3058 119.254 14.3471 119.078 14.3471C118.903 14.3471 118.742 14.3058 118.598 14.2232C118.453 14.1371 118.338 14.0148 118.252 13.8564C118.166 13.6945 118.123 13.5051 118.123 13.2881C118.123 13.0746 118.166 12.8887 118.252 12.7302C118.338 12.5718 118.453 12.4513 118.598 12.3686C118.742 12.286 118.903 12.2446 119.078 12.2446C119.254 12.2446 119.414 12.2877 119.559 12.3738C119.707 12.4564 119.824 12.577 119.91 12.7354ZM106.714 13.19C106.714 13.2795 106.709 13.3742 106.699 13.4741H104.436C104.453 13.7531 104.548 13.9718 104.72 14.1302C104.896 14.2851 105.108 14.3626 105.356 14.3626C105.559 14.3626 105.728 14.3161 105.862 14.2232C106 14.1267 106.096 13.9993 106.151 13.8409H106.657C106.582 14.113 106.43 14.3351 106.203 14.5073C105.976 14.676 105.693 14.7604 105.356 14.7604C105.087 14.7604 104.846 14.7001 104.632 14.5796C104.422 14.4591 104.257 14.2886 104.137 14.0682C104.016 13.8443 103.956 13.586 103.956 13.2933C103.956 13.0006 104.014 12.744 104.131 12.5236C104.248 12.3032 104.412 12.1344 104.622 12.0174C104.836 11.8968 105.08 11.8365 105.356 11.8365C105.624 11.8365 105.862 11.8951 106.069 12.0122C106.275 12.1293 106.434 12.2911 106.544 12.4978C106.657 12.701 106.714 12.9317 106.714 13.19ZM106.229 13.0918C106.229 12.9128 106.189 12.7595 106.11 12.6321C106.031 12.5012 105.922 12.4031 105.784 12.3376C105.65 12.2688 105.5 12.2343 105.335 12.2343C105.097 12.2343 104.894 12.3101 104.725 12.4616C104.56 12.6131 104.465 12.8232 104.441 13.0918H106.229ZM108.156 11.9657C108.005 12.0552 107.888 12.1809 107.805 12.3428V11.883H107.335V14.7139H107.805V13.1745C107.805 12.6028 108.068 12.317 108.595 12.317H108.719V11.8314C108.499 11.8314 108.311 11.8762 108.156 11.9657ZM109.086 13.2933C109.086 13.0006 109.145 12.7457 109.262 12.5288C109.379 12.3084 109.541 12.1379 109.747 12.0174C109.958 11.8968 110.197 11.8365 110.465 11.8365C110.813 11.8365 111.099 11.9209 111.323 12.0897C111.55 12.2584 111.7 12.4926 111.772 12.7922H111.266C111.218 12.62 111.123 12.484 110.982 12.3841C110.844 12.2843 110.672 12.2343 110.465 12.2343C110.197 12.2343 109.98 12.3273 109.815 12.5133C109.649 12.6958 109.567 12.9558 109.567 13.2933C109.567 13.6343 109.649 13.8977 109.815 14.0837C109.98 14.2696 110.197 14.3626 110.465 14.3626C110.672 14.3626 110.844 14.3144 110.982 14.218C111.12 14.1216 111.215 13.9838 111.266 13.8047H111.772C111.697 14.094 111.545 14.3265 111.318 14.5021C111.091 14.6743 110.806 14.7604 110.465 14.7604C110.197 14.7604 109.958 14.7001 109.747 14.5796C109.541 14.4591 109.379 14.2886 109.262 14.0682C109.145 13.8478 109.086 13.5895 109.086 13.2933ZM112.4 12.5288C112.283 12.7457 112.224 12.9989 112.224 13.2881C112.224 13.574 112.283 13.8288 112.4 14.0527C112.517 14.2765 112.677 14.4505 112.88 14.5744C113.083 14.6984 113.311 14.7604 113.562 14.7604C113.807 14.7604 114.02 14.707 114.203 14.6003C114.389 14.4901 114.528 14.3523 114.621 14.187V14.7139H115.096V11.883H114.621V12.3996C114.531 12.2378 114.395 12.1034 114.213 11.9967C114.03 11.8899 113.815 11.8365 113.567 11.8365C113.316 11.8365 113.087 11.8968 112.88 12.0174C112.677 12.1379 112.517 12.3084 112.4 12.5288ZM114.492 12.7354C114.578 12.8938 114.621 13.0798 114.621 13.2933C114.621 13.5068 114.578 13.6945 114.492 13.8564C114.406 14.0148 114.289 14.1371 114.141 14.2232C113.996 14.3058 113.836 14.3471 113.66 14.3471C113.485 14.3471 113.324 14.3058 113.18 14.2232C113.035 14.1371 112.92 14.0148 112.834 13.8564C112.748 13.6945 112.704 13.5051 112.704 13.2881C112.704 13.0746 112.748 12.8887 112.834 12.7302C112.92 12.5718 113.035 12.4513 113.18 12.3686C113.324 12.286 113.485 12.2446 113.66 12.2446C113.836 12.2446 113.996 12.2877 114.141 12.3738C114.289 12.4564 114.406 12.577 114.492 12.7354ZM116.361 12.3428C116.443 12.1809 116.56 12.0552 116.712 11.9657C116.867 11.8762 117.055 11.8314 117.275 11.8314V12.317H117.151C116.624 12.317 116.361 12.6028 116.361 13.1745V14.7139H115.891V11.883H116.361V12.3428Z" fill="#ADADAD" fill-opacity="0.5"></path><path fill-rule="evenodd" clip-rule="evenodd" d="M191.675 0.951102C188.999 1.06435 186.693 1.83381 185.012 3.17457C184.697 3.42581 184.098 4.02142 183.865 4.3137C183.066 5.31875 182.607 6.44414 182.44 7.80446C182.406 8.08024 182.406 9.05059 182.441 9.29359C182.67 10.9275 183.545 12.1924 185.261 13.3719C185.832 13.7648 186.284 14.0306 187.581 14.738C188.064 15.0016 188.577 15.2869 188.72 15.3722C189.848 16.0423 190.384 16.5731 190.558 17.1937C190.617 17.4033 190.616 17.7253 190.557 17.948C190.37 18.6517 189.721 19.237 188.769 19.5605C188.248 19.7372 187.695 19.825 187.002 19.8406C185.334 19.8782 183.393 19.4559 181.733 18.6943C181.487 18.5814 181.127 18.3969 181.077 18.358C181.063 18.3475 181.047 18.3438 181.041 18.3497C181.019 18.372 179.971 23.3405 179.985 23.3541C180.014 23.3803 180.453 23.5458 180.826 23.6713C182.073 24.0899 183.508 24.3961 184.858 24.5314C186.02 24.6479 187.241 24.6514 188.315 24.5412C191.621 24.2022 194.262 22.8197 195.644 20.7038C196.43 19.5021 196.806 18.1282 196.768 16.5942C196.753 15.9812 196.682 15.5316 196.521 15.0255C196.058 13.5758 195.026 12.4084 193.22 11.2909C192.808 11.0359 192.318 10.7604 191.473 10.3085C190.516 9.79748 190.156 9.59157 189.783 9.34204C189.418 9.09828 189.22 8.94051 189.028 8.73853C188.691 8.38568 188.545 8.06796 188.546 7.68842C188.546 6.8477 189.369 6.12767 190.652 5.84433C191.35 5.69018 192.298 5.66842 193.259 5.78455C194.359 5.91761 195.624 6.2628 196.582 6.69138C196.713 6.74996 196.822 6.7956 196.825 6.7928C196.828 6.78999 197.061 5.71758 197.343 4.40968C197.626 3.10176 197.861 2.01637 197.867 1.99769C197.88 1.9566 197.822 1.93008 197.421 1.79119C196.259 1.38931 194.823 1.09713 193.52 0.99771C193.371 0.986377 193.197 0.972801 193.133 0.96756C192.987 0.955531 191.869 0.942903 191.675 0.951102ZM144.832 1.3306C144.819 1.36922 144.707 2.02923 144.713 2.03492C144.715 2.03776 144.848 2.06704 145.006 2.10002C146.244 2.3569 147.521 2.72764 148.643 3.15511C149.63 3.53088 149.986 3.68105 150.326 3.86479C150.938 4.19509 151.343 4.58575 151.569 5.06293C151.753 5.45399 151.742 5.41314 152.79 9.46764C153.22 11.1323 153.606 12.6248 153.648 12.7843C153.723 13.0718 155.419 19.6292 155.597 20.317C155.648 20.5138 155.897 21.4776 156.151 22.4588L156.613 24.2428L159.722 24.2429L162.831 24.2429L167.611 12.7916C170.24 6.49344 172.394 1.33273 172.398 1.32339C172.401 1.3137 171.074 1.30642 169.305 1.30642H166.206L166.173 1.38862C166.155 1.43381 164.775 4.93014 163.108 9.15821C161.44 13.3863 160.068 16.8587 160.059 16.8746C160.047 16.895 160.042 16.8962 160.041 16.8786C160.04 16.829 157.529 3.6123 157.482 3.4072C157.303 2.63098 156.824 2.00278 156.138 1.646C155.8 1.46986 155.452 1.36856 155.041 1.32679C154.728 1.29494 144.843 1.29863 144.832 1.3306ZM174.887 1.35961C174.881 1.38885 173.792 6.52129 172.468 12.765C171.144 19.0087 170.056 24.1455 170.05 24.1801L170.04 24.2429H172.993H175.947L178.359 12.8279C179.686 6.54956 180.775 1.38885 180.779 1.35961L180.787 1.30642H177.842H174.897L174.887 1.35961ZM207.493 1.32863C206.516 1.43014 205.799 1.99889 205.29 3.07598C205.227 3.20865 196.639 23.8408 196.49 24.2188C196.482 24.238 197.108 24.2429 199.579 24.2429H202.679L202.914 23.5612C203.044 23.1863 203.312 22.4075 203.511 21.8306L203.871 20.7818L207.652 20.7815C209.731 20.7813 211.433 20.7833 211.433 20.786C211.433 20.7887 211.597 21.5654 211.795 22.5121L212.157 24.2333L214.896 24.2382C217.499 24.2428 217.634 24.2414 217.625 24.2091C217.614 24.1726 212.862 1.33207 212.862 1.31607C212.862 1.29886 207.662 1.31103 207.493 1.32863ZM209.598 11.7962C210.097 14.1353 210.506 16.0651 210.506 16.0847C210.506 16.1192 210.423 16.1204 208.051 16.1204C206.095 16.1204 205.598 16.1155 205.604 16.0962C205.722 15.7476 208.681 7.51541 208.684 7.52684C208.687 7.53593 209.098 9.45716 209.598 11.7962Z" fill="#D8D8D8"></path><path fill-rule="evenodd" clip-rule="evenodd" d="M242.333 5.98887C242.135 6.08091 241.931 6.28952 241.854 6.47995C241.822 6.55808 241.179 10.5073 240.426 15.256L239.057 23.8899L239.13 24.0535C239.171 24.1435 239.262 24.2533 239.334 24.2976C239.459 24.3751 239.541 24.3781 241.567 24.3779L243.671 24.3778L244.154 21.3239C244.42 19.6442 244.654 18.2025 244.675 18.12C244.726 17.9212 244.964 17.648 245.169 17.5551C245.315 17.4886 245.452 17.4802 246.407 17.4791C248.544 17.4766 249.537 17.361 250.642 16.9863C252.952 16.2027 254.358 14.4973 254.963 11.7439C255.267 10.3582 255.209 9.25797 254.783 8.37147C254.61 8.01229 254.24 7.50396 253.965 7.24908C253.213 6.55203 252.102 6.13644 250.548 5.97137C250.107 5.92446 249.239 5.91273 246.245 5.91309C242.678 5.9135 242.487 5.91719 242.333 5.98887Z" fill="#ADADAD" fill-opacity="0.5"></path><path fill-rule="evenodd" clip-rule="evenodd" d="M237.844 0.792762C237.616 0.89897 237.383 1.13967 237.294 1.35939C237.257 1.44954 236.52 6.0063 235.656 11.4855L234.085 21.4478L234.17 21.6366C234.216 21.7404 234.322 21.8671 234.404 21.9182C234.547 22.0077 234.641 22.0111 236.966 22.0109L239.378 22.0108L239.933 18.487C240.237 16.549 240.507 14.8854 240.531 14.7902C240.588 14.5608 240.862 14.2456 241.096 14.1384C241.264 14.0617 241.421 14.052 242.517 14.0507C244.968 14.0479 246.107 13.9144 247.374 13.4821C250.025 12.5779 251.637 10.6102 252.331 7.43323C252.68 5.83425 252.613 4.56481 252.124 3.54192C251.926 3.12748 251.501 2.54094 251.186 2.24685C250.324 1.44256 249.049 0.963033 247.267 0.772578C246.761 0.718444 245.765 0.70491 242.331 0.705332C238.239 0.7058 238.021 0.710061 237.844 0.792762Z" fill="#959595" fill-opacity="0.7"></path><path fill-rule="evenodd" clip-rule="evenodd" d="M264.325 6.43559C264.394 6.28055 264.536 6.13519 264.694 6.06005L264.822 5.99908L268.071 6.00792C270.946 6.01577 271.348 6.02163 271.563 6.0588C272.258 6.1789 272.711 6.30828 273.142 6.51012C274.156 6.98518 274.755 7.74043 274.991 8.84163C275.061 9.16977 275.088 9.94156 275.044 10.3602C274.922 11.5192 274.582 12.6218 274.101 13.4166C273.308 14.7258 272.081 15.5169 270.386 15.8112C269.85 15.9042 269.566 15.921 268.25 15.937L266.945 15.9529L266.809 16.0281C266.664 16.1084 266.546 16.237 266.485 16.3818C266.465 16.4309 266.309 17.3465 266.14 18.4166L266.139 18.4224C265.847 20.2682 265.81 20.5029 265.676 20.6464C265.656 20.6673 265.634 20.6862 265.61 20.708L265.609 20.7085C265.557 20.7535 265.463 20.8145 265.399 20.844C265.286 20.8962 265.243 20.8979 263.901 20.9055C262.962 20.9108 262.489 20.9045 262.425 20.8857C262.225 20.8274 262.095 20.6582 262.095 20.4564C262.095 20.3907 262.585 17.2355 263.184 13.4449C263.979 8.41286 264.287 6.52126 264.325 6.43559ZM270.987 10.0585C270.852 9.48817 270.458 9.17217 269.72 9.0435C269.543 9.01256 269.267 8.99841 268.685 8.99038C267.893 8.9795 267.892 8.97957 267.79 9.0384L267.788 9.03906C267.764 9.05334 267.742 9.06576 267.723 9.08091C267.593 9.18177 267.558 9.4038 267.292 11.1039L267.29 11.1155C267.136 12.0997 267.009 12.9125 267.009 12.9217C267.009 12.9556 268.958 12.9123 269.171 12.8737C269.754 12.7684 270.099 12.6097 270.4 12.3093C270.621 12.0876 270.749 11.8773 270.862 11.5491C271.01 11.1193 271.07 10.4073 270.987 10.0585ZM277.123 11.5646C277.804 11.1447 278.591 10.8598 279.354 10.7579C279.688 10.7131 280.407 10.7047 280.776 10.7413C281.964 10.8589 282.709 11.1976 283.145 11.8173C283.222 11.9274 283.29 12.0133 283.295 12.0082C283.3 12.0031 283.329 11.8448 283.359 11.6565C283.426 11.234 283.471 11.124 283.614 11.0291L283.724 10.9572L285.088 10.95C286.003 10.9451 286.486 10.9517 286.555 10.9701C286.611 10.9852 286.697 11.037 286.745 11.0854C286.758 11.0983 286.77 11.1083 286.782 11.1176C286.792 11.1259 286.801 11.1336 286.81 11.1422C286.916 11.25 286.876 11.5012 286.34 14.8888C286.292 15.19 286.241 15.5159 286.185 15.8688C285.641 19.3117 285.462 20.3872 285.421 20.4751C285.351 20.6233 285.199 20.7739 285.049 20.8429C284.933 20.8963 284.897 20.8979 283.67 20.9052C282.832 20.9102 282.377 20.9036 282.309 20.8854C282.173 20.8488 282.04 20.7188 281.999 20.5825C281.97 20.486 281.972 20.4274 282.022 20.124C282.053 19.9327 282.078 19.7594 282.078 19.7388C282.077 19.7174 282.02 19.7562 281.943 19.8299C281.387 20.3612 280.602 20.7819 279.779 20.99C278.862 21.2214 277.76 21.1857 276.888 20.8962C275.665 20.4899 274.767 19.4711 274.419 18.094C274.062 16.6814 274.348 14.9373 275.158 13.589C275.653 12.7648 276.362 12.0341 277.123 11.5646ZM288.14 11.3978C288.14 11.2208 288.291 11.0235 288.467 10.9691C288.506 10.9574 289.164 10.9499 289.931 10.9525L291.325 10.9572L291.44 11.0172C291.585 11.0925 291.738 11.2358 291.798 11.3526C291.824 11.4019 292.181 12.5661 292.592 13.9397C293.004 15.3133 293.348 16.4518 293.357 16.4697C293.368 16.4894 294.07 15.477 295.151 13.8845C296.128 12.4449 296.972 11.2219 297.026 11.1668C297.08 11.1118 297.178 11.0421 297.244 11.012C297.36 10.9584 297.393 10.957 298.757 10.9492C299.709 10.9438 300.181 10.9501 300.246 10.969C300.36 11.0023 300.484 11.1022 300.536 11.2011C300.581 11.2873 300.585 11.5117 300.544 11.5897C300.488 11.6936 291.894 24.0833 291.827 24.1553C291.791 24.1946 291.691 24.2608 291.606 24.3024L291.452 24.3781L289.992 24.3711L288.533 24.3641L288.439 24.2927C288.277 24.1699 288.213 23.9779 288.275 23.8026C288.294 23.7469 288.909 22.8574 289.641 21.8257C290.373 20.7941 290.98 19.9366 290.99 19.9202C291.001 19.9038 290.363 17.9976 289.575 15.6843C288.786 13.371 288.14 11.4421 288.14 11.3978ZM282.744 14.7483C282.521 14.1014 281.991 13.6534 281.273 13.5069C281.067 13.4649 280.589 13.4382 280.402 13.4584C279.712 13.5327 279.027 13.8636 278.59 14.3341C278.045 14.9198 277.738 15.7696 277.788 16.5493C277.821 17.0668 277.995 17.4809 278.312 17.7996C278.603 18.0918 278.923 18.2592 279.366 18.3509C279.679 18.4157 280.246 18.4118 280.568 18.3425C281.63 18.1143 282.393 17.4313 282.725 16.4117C282.914 15.8309 282.92 15.2603 282.744 14.7483Z" fill="#D8D8D8"></path><path d="M327.98 6.06374C327.911 6.10544 327.856 6.16465 327.823 6.23556C327.785 6.31605 327.489 8.14202 326.669 13.3658C326.062 17.228 325.566 20.4256 325.567 20.4716C325.568 20.6617 325.707 20.8332 325.902 20.8855C325.969 20.9036 326.405 20.9103 327.199 20.9052L328.394 20.8977L328.529 20.8369C328.705 20.7574 328.879 20.5665 328.932 20.3923C328.976 20.2491 331.144 6.55429 331.144 6.42053C331.144 6.29518 331.04 6.12275 330.925 6.05742L330.824 6.00051L329.456 6.00033L328.087 6.00015L327.98 6.06374Z" fill="#ADADAD" fill-opacity="0.5"></path><path fill-rule="evenodd" clip-rule="evenodd" d="M317.918 10.7312C317.883 10.7362 317.75 10.7532 317.624 10.769C317.497 10.7847 317.261 10.8299 317.099 10.8693C314.846 11.4191 313.133 13.2942 312.687 15.6978C312.457 16.936 312.592 18.0501 313.09 19.0383C313.813 20.4724 315.17 21.1952 317.023 21.1323C317.47 21.1171 317.745 21.0778 318.161 20.9696C318.876 20.7838 319.616 20.3924 320.169 19.9079C320.289 19.8031 320.39 19.7204 320.394 19.724C320.398 19.7276 320.377 19.8728 320.349 20.0465C320.32 20.2203 320.297 20.4058 320.297 20.4588C320.297 20.6608 320.431 20.8316 320.631 20.8854C320.699 20.9036 321.151 20.9102 321.98 20.9052L323.226 20.8977L323.373 20.8262C323.557 20.736 323.712 20.5634 323.764 20.391C323.816 20.2198 325.183 11.5487 325.183 11.3929C325.183 11.1917 325.055 11.026 324.856 10.971C324.722 10.9338 322.186 10.9354 322.05 10.9729C321.994 10.9883 321.906 11.0428 321.855 11.0939C321.752 11.1967 321.734 11.2578 321.658 11.7565L321.615 12.046L321.492 11.8667C321.042 11.2114 320.292 10.862 319.073 10.7413C318.827 10.7169 318.064 10.7102 317.918 10.7312ZM321.025 16.4456C321.492 15.0544 320.916 13.8242 319.655 13.5187C319.444 13.4675 318.886 13.4327 318.686 13.4582C317.255 13.6397 316.248 14.6821 316.103 16.1315C316.028 16.8912 316.289 17.5831 316.796 17.9658C317.313 18.3568 318.071 18.4974 318.858 18.3486C319.883 18.1548 320.689 17.4471 321.025 16.4456Z" fill="#ADADAD" fill-opacity="0.5"></path><path fill-rule="evenodd" clip-rule="evenodd" d="M302.985 6.07669C302.817 6.16011 302.726 6.24925 302.643 6.4114C302.605 6.48672 302.328 8.18441 301.49 13.4956C300.497 19.7881 300.39 20.4907 300.417 20.5811C300.456 20.7092 300.596 20.8492 300.72 20.8835C300.86 20.9222 303.582 20.92 303.738 20.881C303.889 20.843 304.062 20.6813 304.101 20.5408C304.117 20.4848 304.268 19.5557 304.437 18.4763C304.606 17.3968 304.763 16.4631 304.786 16.4014C304.837 16.2621 304.971 16.1114 305.123 16.0229C305.26 15.9427 305.213 15.9454 306.777 15.93C307.953 15.9185 308.273 15.8945 308.887 15.772C309.61 15.6279 310.215 15.4034 310.755 15.0783C312.102 14.2681 312.948 12.8702 313.272 10.9189C313.552 9.23938 313.279 8.02595 312.431 7.18488C311.849 6.60688 311.057 6.25728 309.902 6.06925C309.572 6.01559 309.498 6.01427 306.354 6.00614L303.143 5.9978L302.985 6.07669ZM308.79 9.30764C308.648 9.21027 308.329 9.0945 308.061 9.04342C307.8 8.99352 306.253 8.96556 306.15 9.00889C306.065 9.0447 305.975 9.13072 305.928 9.22044C305.907 9.26059 305.761 10.1094 305.603 11.1066L305.316 12.9198L306.097 12.9274C306.889 12.935 307.311 12.9115 307.657 12.8405C308.634 12.6394 309.145 12.0584 309.308 10.9618C309.427 10.164 309.26 9.62994 308.79 9.30764Z" fill="#ADADAD" fill-opacity="0.5"></path><path d="M350.083 0.705078H352.517V15.0874H350.083V0.705078Z" fill="#D8D8D8"></path><path d="M354.065 0.705078H355.172V15.0874H354.065V0.705078Z" fill="#D8D8D8"></path><path d="M357.163 0.705078H359.155V15.0874H357.163V0.705078Z" fill="#D8D8D8"></path><path d="M360.925 0.705078H362.252V15.0874H360.925V0.705078Z" fill="#D8D8D8"></path><path d="M364.022 0.705078H367.12V15.0874H364.022V0.705078Z" fill="#D8D8D8"></path><path d="M381.281 0.705078H383.936V15.0874H381.281V0.705078Z" fill="#D8D8D8"></path><path d="M369.333 0.705078H371.324V15.0874H369.333V0.705078Z" fill="#D8D8D8"></path><path d="M385.707 0.705078H387.477V15.0874H385.707V0.705078Z" fill="#D8D8D8"></path><path d="M373.316 0.705078H374.865V15.0874H373.316V0.705078Z" fill="#D8D8D8"></path><path d="M389.247 0.705078H390.574V15.0874H389.247V0.705078Z" fill="#D8D8D8"></path><path d="M377.298 0.705078H378.847V15.0874H377.298V0.705078Z" fill="#D8D8D8"></path><path d="M392.566 0.705078H395V15.0874H392.566V0.705078Z" fill="#D8D8D8"></path><path d="M354.856 20.8175C355.229 20.9382 355.524 21.1414 355.742 21.4272C355.96 21.7067 356.069 22.056 356.069 22.4752C356.069 23.0531 355.845 23.5009 355.395 23.8184C354.946 24.1296 354.292 24.2852 353.432 24.2852H350.083V17.6165H353.24C354.035 17.6165 354.648 17.7721 355.078 18.0833C355.508 18.3882 355.723 18.8105 355.723 19.3504C355.723 19.6806 355.646 19.9728 355.492 20.2268C355.338 20.4809 355.126 20.6778 354.856 20.8175ZM351.334 18.5882V20.4269H353.105C353.541 20.4269 353.875 20.3507 354.106 20.1983C354.343 20.0395 354.462 19.8108 354.462 19.5123C354.462 19.2075 354.343 18.9788 354.106 18.8264C353.875 18.6676 353.541 18.5882 353.105 18.5882H351.334ZM353.355 23.3135C354.324 23.3135 354.808 22.9928 354.808 22.3513C354.808 21.7098 354.324 21.3891 353.355 21.3891H351.334V23.3135H353.355Z" fill="#D8D8D8"></path><path d="M361.514 24.3805C360.828 24.3805 360.208 24.2344 359.657 23.9423C359.105 23.6438 358.672 23.2341 358.357 22.7133C358.043 22.1862 357.886 21.5987 357.886 20.9509C357.886 20.3031 358.043 19.7187 358.357 19.198C358.672 18.6708 359.105 18.2612 359.657 17.969C360.208 17.6705 360.828 17.5212 361.514 17.5212C362.201 17.5212 362.82 17.6705 363.372 17.969C363.924 18.2612 364.357 18.6676 364.671 19.1884C364.986 19.7092 365.143 20.2967 365.143 20.9509C365.143 21.605 364.986 22.1925 364.671 22.7133C364.357 23.2341 363.924 23.6438 363.372 23.9423C362.82 24.2344 362.201 24.3805 361.514 24.3805ZM361.514 23.2945C361.963 23.2945 362.368 23.196 362.727 22.9991C363.086 22.7959 363.369 22.5164 363.574 22.1608C363.779 21.7988 363.882 21.3955 363.882 20.9509C363.882 20.5063 363.779 20.1062 363.574 19.7505C363.369 19.3885 363.086 19.109 362.727 18.9121C362.368 18.7089 361.963 18.6073 361.514 18.6073C361.065 18.6073 360.661 18.7089 360.302 18.9121C359.942 19.109 359.66 19.3885 359.455 19.7505C359.249 20.1062 359.147 20.5063 359.147 20.9509C359.147 21.3955 359.249 21.7988 359.455 22.1608C359.66 22.5164 359.942 22.7959 360.302 22.9991C360.661 23.196 361.065 23.2945 361.514 23.2945Z" fill="#D8D8D8"></path><path d="M367.431 17.6165H368.683V23.2373H372.205V24.2852H367.431V17.6165Z" fill="#D8D8D8"></path><path d="M379.208 23.2468V24.2852H374.156V17.6165H379.074V18.6549H375.407V20.3888H378.66V21.4082H375.407V23.2468H379.208Z" fill="#D8D8D8"></path><path d="M382.932 18.6645H380.7V17.6165H386.417V18.6645H384.184V24.2852H382.932V18.6645Z" fill="#D8D8D8"></path><path d="M391.371 24.3805C390.685 24.3805 390.066 24.2344 389.514 23.9423C388.962 23.6438 388.529 23.2341 388.214 22.7133C387.9 22.1862 387.743 21.5987 387.743 20.9509C387.743 20.3031 387.9 19.7187 388.214 19.198C388.529 18.6708 388.962 18.2612 389.514 17.969C390.066 17.6705 390.685 17.5212 391.371 17.5212C392.058 17.5212 392.677 17.6705 393.229 17.969C393.781 18.2612 394.214 18.6676 394.528 19.1884C394.843 19.7092 395 20.2967 395 20.9509C395 21.605 394.843 22.1925 394.528 22.7133C394.214 23.2341 393.781 23.6438 393.229 23.9423C392.677 24.2344 392.058 24.3805 391.371 24.3805ZM391.371 23.2945C391.82 23.2945 392.225 23.196 392.584 22.9991C392.943 22.7959 393.226 22.5164 393.431 22.1608C393.636 21.7988 393.739 21.3955 393.739 20.9509C393.739 20.5063 393.636 20.1062 393.431 19.7505C393.226 19.3885 392.943 19.109 392.584 18.9121C392.225 18.7089 391.82 18.6073 391.371 18.6073C390.922 18.6073 390.518 18.7089 390.159 18.9121C389.799 19.109 389.517 19.3885 389.312 19.7505C389.106 20.1062 389.004 20.5063 389.004 20.9509C389.004 21.3955 389.106 21.7988 389.312 22.1608C389.517 22.5164 389.799 22.7959 390.159 22.9991C390.518 23.196 390.922 23.2945 391.371 23.2945Z" fill="#D8D8D8"></path></svg>